<svg id="Layer_2" height="512" viewBox="0 0 128 128" width="512" xmlns="http://www.w3.org/2000/svg" data-name="Layer 2"><path d="m113.25 32.875a49.25 49.25 0 0 1 -98.5 0h-13a62.25 62.25 0 0 0 124.5 0z" fill="#60d882"/><path d="m64 82.125a49.306 49.306 0 0 0 49.25-49.25h-7a42.25 42.25 0 0 1 -84.5 0h-7a49.306 49.306 0 0 0 49.25 49.25z" fill="#e3e3ed"/><path d="m64 75.125a42.3 42.3 0 0 0 42.25-42.25h-84.5a42.3 42.3 0 0 0 42.25 42.25z" fill="#f43d58"/><g fill="#632855"><path d="m60.061 37a3.939 3.939 0 0 0 7.878 0c0-1.023-.872-2.667-1.794-4.123h-4.29c-.922 1.455-1.794 3.098-1.794 4.123z"/><path d="m60.061 58.227c0-2.175 3.939-7.169 3.939-7.169s3.939 4.993 3.939 7.169a3.939 3.939 0 1 1 -7.878 0z"/><path d="m81.679 47.12c0-2.175 3.939-7.169 3.939-7.169s3.939 4.993 3.939 7.169a3.939 3.939 0 1 1 -7.878 0z"/><path d="m46.321 47.12c0-2.175-3.939-7.169-3.939-7.169s-3.939 4.993-3.939 7.169a3.939 3.939 0 1 0 7.878 0z"/></g></svg>